<svg width="437" height="92" viewBox="0 0 437 92" fill="none" xmlns="http://www.w3.org/2000/svg">
<g clip-path="url(#clip0)">
<path d="M39.5393 5.67498L40.5489 5.56584L41.9225 5.98875L42.4583 5.83187L42.9939 6.15245L44.0585 6.09787L46.3524 6.88909L48.4884 8.43062L50.4595 9.54242L52.2796 11.4523L53.1312 13.0893L53.5021 13.3075L53.9828 14.5217L54.6284 18.0208L54.5735 19.8215L54.3606 20.0329L54.2507 21.8882L53.1381 25.5442L52.5543 26.5537L52.2315 26.6083L52.0735 27.2426L50.4183 28.9887L49.6148 29.4116L49.4018 29.9437L46.5722 31.6421L45.3497 32.0104L43.0558 32.331L42.4651 32.065L41.2907 32.1195L39.0517 31.2669L36.9913 29.9028L35.4941 27.5222L34.9103 25.5578L35.2811 22.6999L35.6039 22.5362V22.2224L36.7234 20.1762L37.2042 19.5418L39.869 18.0549L40.9954 18.164L43.6052 20.1216L43.5022 20.7014H43.928L44.2508 21.4448L44.8895 21.7654V22.0315L44.5668 22.1338L44.1409 21.82L41.4624 22.6044L39.8072 24.4051L39.6423 25.7352L39.2165 26.2604L39.4294 27.9042L40.0682 29.6504L41.6203 30.769L42.63 30.9259L44.3951 30.7144L48.0214 28.75L50.9059 25.4146L51.4348 24.3028L52.0254 22.8704L52.8221 19.2144L52.5611 18.5801L52.5062 16.6702L52.2383 16.1928L52.5062 15.6608L51.9155 14.7604L51.6477 14.4944L50.9059 12.5368L48.9829 10.8384L46.1533 9.35825L42.8497 8.72391L39.8552 8.77166L36.9226 9.51514L33.6122 11.0089L31.696 12.3731L31.4831 12.1616L29.5051 14.7536L28.3856 16.1177L28.0147 16.9635L27.4791 17.175L27.5821 17.5979L26.4626 18.8188L26.7854 19.8215L26.1467 20.5036L26.0917 21.8678L25.6659 24.6507L25.7689 26.1376L26.5725 29.3707L26.9433 30.3734L27.5821 30.8508L28.0147 32.2832L30.4117 35.2503L34.5325 38.3743L37.2042 40.0727L38.5366 41.0822L41.1533 42.6169L44.8346 45.2156L47.0736 47.3846L47.1835 48.019L48.0901 48.3941L48.0351 49.0285L48.5159 49.2399L49.0516 50.1949L49.5804 50.304L50.384 51.4158L50.7068 52.5276L51.5584 53.3188L52.465 56.6065L52.1422 56.8179L52.623 57.2954L52.5199 57.7729L53.0007 58.7823L52.8359 59.2598L53.1037 59.519V62.5952L52.8359 62.9158L52.9457 63.8162L52.5199 64.2936L52.7328 64.9279L52.1422 65.7737L52.3551 66.1966L52.0392 66.7287V68.0042L51.7713 68.1611L50.4389 71.1281L48.8387 73.038V73.5632L46.167 76.1619L43.77 78.3378L40.6725 80.1863L37.63 81.6186L36.4556 82.2598H35.7688L33.3169 83.1602L29.5807 84.0605L25.6315 84.6949L23.8184 84.4834H22.7813L18.7292 84.2174L17.1289 84.0059L13.0699 82.6827L12.4311 82.6281L9.23065 80.9843L6.77188 79.3405L5.22657 77.8058L1.86809 73.4063L1.75822 72.7242L0.851631 70.6029L0 66.6332L0.0480813 63.5024V63.0795L0.425815 62.2337L0.583767 60.1874L1.54531 57.0089L2.98758 53.9327L6.03012 50.3313L6.55897 50.379L6.77188 49.7447L9.38861 47.7871L13.3377 45.9795L16.6962 45.1883L21.6069 44.6563L23.7978 44.9223L27.637 45.7204L27.795 45.9318L28.1178 45.9795L31.3732 47.678L31.9639 47.7871L32.2249 48.5237L32.9735 48.4214L33.8251 49.9016L34.1479 50.1676L35.0545 50.6996L36.7646 53.7758L36.8196 53.9327L37.2935 54.2533L37.7743 56.5314L37.4034 56.8452L38.0421 59.2871L37.4034 59.8123L37.8841 60.0783L37.2935 61.6676L37.3484 62.0427L36.8677 62.7248L37.1905 63.0386L36.7097 63.4137L36.0229 64.6824L34.2578 66.9401L34.0449 67.363H33.3993L30.4666 69.4093L28.4062 69.9345L24.2442 70.2551L22.3761 69.573L20.8308 68.4066L18.9627 66.3603L18.0561 63.1818V62.7589L18.5849 61.1697L19.8692 59.2052L20.8308 58.6255L23.0697 57.8274L23.4406 58.3049H23.9763L24.7799 59.1029L25.2057 59.785L25.5216 60.4671L25.0958 60.8354L24.9379 61.5789L23.8184 63.4819L23.9214 63.5365L22.3761 63.4819L21.0437 63.059L20.7209 63.5365L20.508 64.7574L20.9338 66.1216L22.486 68.0315L24.5464 68.4543L26.7304 68.5021L27.5821 68.0315H27.9598L30.3087 65.9852V65.8761L30.9955 64.8188L30.9405 64.4982L32.5408 60.9446L32.8636 56.4973L32.0051 53.6326L30.9405 51.409L29.2304 49.4991L26.6686 47.6438L24.4296 46.9618L21.6824 46.382L18.4819 46.5934L17.6303 46.914L13.5094 48.4487L11.3804 50.1403L10.9477 50.3586L7.96004 53.1619L6.25678 55.7607L5.45323 57.0839L4.9175 59.1302L4.44361 62.0973L4.33373 63.5297L4.27878 65.3304L4.86942 67.0288L5.29528 69.6753L6.57272 72.4855L7.90513 75.3502L8.12491 75.5617L8.60564 75.7186L9.72513 77.3079L11.2155 78.6311L14.8487 80.9093L16.9091 81.7619L20.3431 82.2393L24.0244 82.3416L24.5601 82.1302L25.3019 82.4508L25.8925 82.0825L28.0766 81.7073L28.3444 81.605L29.4158 81.4413L32.4515 80.3841L35.0133 78.8494H35.1781L37.2385 77.5193L39.2989 75.7732L40.3086 74.8182L42.5544 71.9057L43.9898 69.307L44.5256 67.2607L45.3772 63.973L45.2741 62.2746L45.9129 61.0605L45.597 60.2625L45.7549 58.9392L45.542 58.5163L45.1162 56.2382L44.2577 53.2165L43.7288 51.5727L41.9088 48.4487L41.7508 48.2373L39.9926 46.6412L39.5668 45.8499L39.1341 45.6931L38.0284 44.5676L36.1122 42.8761L35.4666 42.344L28.7428 37.5694L26.8266 36.2052L23.6055 33.1222L22.0052 30.7417L20.0341 25.7079L19.8212 21.4107L19.7113 20.565L20.3569 19.4532L20.247 19.1326L21.3115 16.0632L22.5959 14.0169L25.4736 10.8384L28.626 8.79212L32.6301 6.51395L34.2303 6.03648L36.4144 5.92735L38.4404 5.50446L39.5393 5.67498Z" fill="#512D6D"/>
<path d="M61.469 38.8995L63.9209 39.1109L65.686 39.793L67.1764 40.7479L68.0349 41.5937V41.9143L68.4057 42.0712L69.5252 44.3016L69.7381 45.3588L70.0609 45.6794L70.2189 47.2687L69.7381 47.5347L70.3288 48.7488L70.4318 49.2263L69.7931 49.9084L70.2189 50.8633L69.848 51.2316L69.6351 52.9846L69.1544 53.196L69.3123 53.7758L68.8865 55.2082L72.7258 50.5427L73.6873 49.9084L75.2394 49.54L75.6103 49.2194L77.5815 49.3286L77.8493 49.5946L78.5361 49.6424L80.782 51.2862L81.0979 51.6613L82.1693 54.3897L81.8465 54.8603L82.1144 55.29L81.7366 57.0907L82.3822 55.556L83.2888 55.1263L84.3533 53.9122L87.4989 52.6367L89.1541 52.1592L92.8903 54.0691L94.3876 56.1904L94.8134 57.4045L94.6005 57.8342L94.9164 59.5804L95.1842 61.538L94.2227 64.4027L93.0483 67.1311L91.6747 68.5635L91.4618 69.1432L90.6651 69.5729L90.4522 70.4187L87.8904 73.1471L86.3931 75.7459L85.0195 77.5466L82.8355 80.8342L82.3547 82.6895L81.819 85.7043L82.2998 86.1341L82.0319 86.8775L83.4742 88.9238L84.3259 89.9879L85.2874 90.5676L86.6198 90.8882L87.9934 90.8336L89.7035 89.9333L90.3423 89.3535L90.878 87.812L90.6651 87.5528L89.6486 88.0234L88.4261 87.4437L87.3547 85.9567L87.2516 84.5925L88.2613 83.3238H88.797L89.3327 82.9009L91.5717 83.5353L92.5332 84.6471V85.4451L92.959 85.868L92.801 87.0344L91.7296 89.6263L90.6651 91.0587L90.2874 91.2702H89.9714L88.639 92.0137H85.8918L82.8492 90.5813L82.6363 90.2129L81.2971 89.2989L80.5004 87.812L79.9097 86.3318L79.5938 82.7304L79.8548 79.7565L80.4454 79.5996L80.3905 78.4878L80.8163 76.8986L81.4069 76.844L81.6748 75.6231L82.7393 74.5113L82.5814 74.0884L83.2682 73.7201L83.4811 72.7106L84.8547 70.8553L87.0937 67.6767L87.6294 67.5676L87.4646 66.831H88.0552L89.4288 64.7847L90.4934 63.782L91.242 61.3402L91.7228 61.081L92.2585 59.4849L92.4714 57.8479L91.8807 55.8835L90.1774 54.5193L87.7187 54.2533L86.1047 54.6625L83.8657 56.5178L83.1789 57.882H82.7531L82.5951 58.8301L81.9083 59.7372L81.9564 60.1056L81.6405 60.4262L81.0017 62.0632L80.3149 62.8066L80.363 63.3387L79.9372 63.8707L80.102 64.5528L79.4564 64.9757L79.7792 65.1326L79.2985 65.9783L79.1405 67.0424L78.5498 67.7245L78.6597 68.5157L77.6982 69.5252L77.7532 70.4801L77.2174 70.8485L76.3109 73.5768L75.5073 75.0092L74.0719 75.5412L73.859 75.1661L73.1722 75.1115L72.0321 74.4431L72.5128 71.7897L72.9936 71.1554L72.8906 70.6779L73.9002 69.3138L73.7422 68.8363L74.3809 67.5676L74.223 66.981L74.8067 66.6673L75.0746 65.0712L76.407 62.5338L76.2491 61.7903L77.1007 60.6785L76.9427 60.1465L78.2751 57.2817L78.385 55.747L78.488 54.8467L78.7078 54.1032L78.3301 53.4689L78.6529 52.6231L77.863 51.7773V51.4635L76.4208 50.8224H75.4111L75.2532 51.0338L74.8205 50.9861L72.6914 52.5207L69.9442 56.5451L69.4085 57.2272L68.7698 58.871L67.2725 61.7903L67.3824 62.1587L67.0047 62.3701L66.7368 63.8025L66.153 64.0685V65.1257L64.9236 67.4585L64.8687 68.6794L64.4429 68.9932L64.4978 69.2592L64.175 70.105V71.2714L63.3234 71.6942L63.4333 73.0243L62.7877 73.5495L62.7396 74.559L61.936 74.6613L61.3797 75.1251L61.0638 74.8046H60.6929L59.5734 74.3817V74.0611L58.6119 73.9588L58.4539 73.0584L58.9347 71.8921L58.7768 71.626L59.3056 70.828L60.535 67.6495L60.9058 67.3834L60.8578 66.5922L62.2314 63.1477L62.6023 61.9813V61.3947L63.5088 58.2708L64.6283 54.8262L64.7863 54.1441L65.1091 53.8781L65.164 52.6094L66.2835 49.5332L66.8673 45.5089L66.3934 42.6441L65.844 41.7028L64.9374 40.7479L62.8014 40.0045L60.741 40.5365L59.3674 42.2826L59.3124 43.6127L59.5803 44.6154L60.3839 45.0928L60.7548 44.7245L61.1806 44.8268L61.7163 43.6127L62.513 43.5036L63.9552 44.6699L64.436 45.5703L63.2616 47.371L61.8193 48.1145L60.0611 47.7939L59.6353 47.3164L58.5158 46.8458L57.7671 44.1174L57.7122 43.64L58.6737 40.8366L59.5803 40.25L59.9512 39.718L60.5968 39.5611L61.469 38.8995Z" fill="#512D6D"/>
<path d="M111.681 44.4312L112.746 44.8541L113.227 44.7518L113.707 45.2293L113.975 45.1201L115.205 46.1842L117.073 47.6643L118.35 49.0967L118.137 49.5742L117.341 49.5196L115.521 48.9398L113.46 49.0967L110.026 51.0065L107.279 54.0759L106.132 56.0267L104.648 59.7782L104.065 62.8544L104.223 65.5828L104.49 66.0056L104.387 66.5922L105.184 67.9155L106.468 69.0819L108.769 69.6685L111.516 69.0887L113.652 67.7245L115.624 65.8692L117.492 63.059L119.47 59.0347L119.202 58.4481L119.092 56.1699L117.492 54.7375L116.159 54.3692L115.624 54.4238L113.865 54.7921L112.21 55.747V56.0608L110.713 58.2367L110.5 58.4481L109.971 60.0374L110.074 62.2132L111.091 62.8476L113.227 62.5816L114.078 62.2132V62.7384L113.124 63.5297L111.839 64.0617L109.971 63.8503L108.371 62.2542L107.787 60.89L107.89 58.5641L108.639 56.8657L109.71 55.1673L112.162 53.312L112.746 53.0528L114.724 52.7322L115.898 52.6777L118.247 53.312L119.58 53.9941L121.077 55.3583L121.503 55.8357L121.983 58.489L121.393 61.347L119.95 64.2663L117.602 66.9401L113.762 69.8049L111.413 70.7598L110.452 70.8621L107.361 71.0736L104.745 70.0709L102.341 68.161L100.905 65.4327L100.26 61.3402L100.528 58.5368L101.276 55.5697L101.757 55.4606L101.599 54.8262L103.948 50.4268L106.771 47.1937H107.148L107.519 46.5116L108.639 45.8295L111.681 44.4312Z" fill="#512D6D"/>
<path d="M138.522 44.4312L139.586 44.8541L140.067 44.7518L140.548 45.2293L140.816 45.1201L142.045 46.1842L143.913 47.6643L145.19 49.0967L144.978 49.5742L144.181 49.5196L142.361 48.9398L140.3 49.0967L136.866 51.0065L134.119 54.0759L132.972 56.0267L131.475 59.785L130.891 62.8612L131.049 65.5896L131.317 66.0125L131.214 66.5991L132.011 67.9223L133.295 69.0887L135.589 69.6685L138.336 69.0887L140.472 67.7245L142.443 65.8692L144.311 63.059L146.289 59.0347L146.021 58.4481L145.912 56.1699L144.311 54.7375L142.979 54.3692L142.443 54.4238L140.685 54.7921L138.989 55.7539V56.0676L137.491 58.2435L137.278 58.4549L136.75 60.0442L136.853 62.2201L137.869 62.8544L140.005 62.5884L140.857 62.2201V62.7453L139.964 63.5297L138.68 64.0617L136.811 63.8503L135.211 62.2542L134.627 60.89L134.73 58.5641L135.479 56.8657L136.55 55.1673L138.989 53.2984L139.572 53.0392L141.55 52.7186L142.725 52.664L145.074 53.2984L146.406 53.9804L147.903 55.3446L148.329 55.8221L148.81 58.4754L148.219 61.3333L146.777 64.2527L144.442 66.9401L140.603 69.8049L138.254 70.7598L137.292 70.8621L134.202 71.0736L131.585 70.0709L129.181 68.161L127.746 65.4327L127.1 61.3402L127.368 58.5368L128.117 55.5697L128.597 55.4606L128.439 54.8262L130.788 50.4268L133.611 47.1937H133.989L134.36 46.5116L135.479 45.8295L138.522 44.4312Z" fill="#512D6D"/>
<path d="M174.38 19.5077L175.231 19.876L175.183 20.5581L174.496 24.5824L173.906 26.7037L172.148 34.4454L171.509 36.935L171.344 37.0374L172.251 37.5694L177.058 37.6717L177.161 37.7808L176.838 38.0469L170.76 39.2678L170.547 40.3796L170.65 40.857L170.279 41.3345L169.476 45.0382L169.16 45.6248L169.263 46.2046L168.837 46.7912V48.2236L168.411 48.7488L168.569 49.1239L168.301 49.2808L167.615 52.4048L167.402 52.5685L167.299 53.7826L167.031 53.994L166.818 54.7921L166.921 55.2696L166.44 56.8043L166.495 57.2817L166.227 57.5477L165.54 60.2761L164.799 62.6634L164.153 65.9988L164.05 66.6331L163.624 67.4857L163.727 67.7995L163.041 69.9754L163.15 70.3437L162.56 71.244L162.615 71.7215L162.031 73.0857L162.079 73.72L163.453 74.5726L165.966 74.3066L164.524 75.739L163.933 75.5753L163.453 75.9505L161.585 75.8413L160.788 77.5397L161.001 77.8057L160.843 78.4878L160.307 78.9107L160.52 79.1767L160.149 79.5996V80.5818L159.771 82.0142L159.593 82.8327L159.009 82.9896L158.473 82.6758L158.425 81.946L159.332 79.5587L159.971 76.4347L160.238 76.0596L160.293 75.0569L158.583 73.8906L156.667 71.2918L156.502 70.7666L155.76 67.1583L155.973 66.79L155.493 64.7438L155.973 62.6975L155.863 62.5338L156.131 62.0563L155.863 61.688L156.502 58.564L156.77 57.4454L157.196 55.0104L157.464 52.7868L158.15 50.454L158.631 50.3449L158.418 49.9766L158.789 48.8648L159.222 47.064L159.057 46.5866L159.593 45.3111L159.222 45.1542L159.703 44.5676L160.341 42.2894L160.499 40.4887L156.763 41.6005L156.447 41.0753L156.66 40.8093L155.912 40.1272L155.376 38.6403L155.534 38.3265L156.282 38.4834L156.708 38.115L157.567 38.3265L160.444 38.2719L161.193 37.7945L161.619 36.8941L161.461 36.1506L161.784 36.0483L162.903 31.4851L163.329 31.3828L163.274 30.7485L163.865 28.5181L163.755 27.836L164.661 25.1895L164.558 24.18L164.929 23.7571L164.874 23.2251L165.252 22.5907L165.513 19.7328L165.678 19.5213L167.491 19.992L169.998 21.4244L170.479 22.1678L170.108 24.8143L169.943 26.6696L169.627 26.9902L169.194 30.0664L168.665 30.4893L168.768 31.3351L168.343 32.3923L168.453 32.556L167.649 35.6254L166.962 36.3689L167.34 36.7918L167.12 37.1124V37.9582L167.869 38.1219L170.06 37.8013L171.282 33.4564L172.354 27.5222L173.954 21.6358L174.38 19.5077ZM169.043 39.5884L166.296 39.9635L165.98 41.0207L166.241 41.4436L165.712 42.2894L165.444 42.3986L165.389 43.8309L164.854 44.5676L164.696 45.4202L164.112 48.3873L162.986 51.6204L163.15 52.1456L162.615 53.6871L162.457 53.8986L162.56 54.2191L161.763 57.0771L160.857 61.0537L160.589 63.7002L160.692 64.1776L160.479 64.3891L159.895 68.1542L160.163 69.6343L160.053 70.5347L160.692 72.0762L161.172 72.2876L160.905 71.8647L161.337 71.4419V70.8553L162.56 66.9878L162.773 65.2894L163.418 63.7547L163.363 63.4341L164.112 60.7058V59.9691L164.373 59.7577L164.483 58.8028L164.909 57.9502L164.751 57.2681L165.712 53.8576L166.241 53.4893L166.351 52.0569L166.777 50.3654L168.59 43.3671L168.755 43.1557L168.968 41.6687L169.284 40.7684L169.606 39.6566L169.043 39.5884Z" fill="#512D6D"/>
<path d="M188.844 16.4656L190.87 16.7794L193.967 17.8912L194.441 19.0575L193.645 22.6044L193.487 23.6685L193.006 24.3028L192.628 25.9466L192.312 26.2058L192.525 27.1607L191.989 27.5359L191.879 28.2725L192.312 28.3817L191.934 28.7023L192.044 29.1252L191.618 30.237L191.241 30.3938L191.564 30.8167L191.186 31.4033L191.028 32.672L190.602 33.3132L190.334 35.2708L190.018 35.3799L190.334 35.7482L189.963 36.0688V36.4917L189.428 36.9146L189.27 38.1833L189.112 38.3947L188.095 41.9484L187.292 42.4804L187.882 42.7464L187.195 44.5472H187.408L187.14 45.3384L186.873 45.4475L186.392 47.1391L186.179 47.5142L186.392 48.094L185.54 49.1035L185.808 49.5264L185.059 49.9493L185.272 50.1607L185.698 50.3245L185.327 50.5359L185.43 50.9042L185.005 51.3271V51.7023L184.634 52.0706L184.579 53.7144L184.153 53.769L184.098 54.8808L183.569 55.1945L183.136 57.159L183.94 56.8929L183.672 56.4701L183.995 56.3132L185.643 53.9804L186.076 53.8167L187.518 51.3817L188.741 50.2699L189.428 50.1607L189.215 49.7924L191.138 47.5688L191.776 46.5048L192.202 46.3479L192.312 46.1364L195.884 42.726L196.687 42.5077H198.445L199.888 43.1489L201.117 45.1065L200.952 47.7052L200.684 48.1281L200.849 48.6602L200.114 49.4991L200.437 49.922L200.004 50.6041H200.327L199.688 52.3571L199.208 52.6163L199.688 53.5166L198.624 54.5807L198.885 55.0581L198.624 55.6925L198.782 56.3746H198.054L198.48 57.4864L197.793 57.9638L198.116 58.073L197.429 58.5982L197.264 59.9282L197.745 59.976L197.532 60.508H197.264L196.948 60.8286L197.484 61.8858L196.68 62.1655L196.57 66.2989L196.783 66.6195L196.996 67.4653L197.477 67.7791L199.537 67.1993L201.35 66.0329L201.934 65.1871L202.36 65.61L200.705 67.5676L199.427 68.8977L197.504 69.6344H195.993L194.228 68.7886L194.07 68.3657L193.164 67.9428L193.219 67.0902L192.202 65.3986L192.58 64.9757L192.47 64.812H191.989L192.257 63.9662V61.3674L192.628 61.3197L192.044 60.7877L192.415 59.7782L192.793 57.5L192.415 57.4454L193.061 56.9748L193.699 54.3215L193.322 53.7417L194.228 53.3666L194.606 52.4116L194.283 52.1456L194.62 49.8879L195.259 49.0967L196.055 46.2319L195.794 45.7067H195.259L192.697 48.2509L189.386 51.9069L186.454 55.7197L183.143 61.0741L181.275 64.7301L179.215 69.9208L177.669 73.7405L177.031 75.0638L176.014 75.6436L175.108 75.1183L174.84 75.2207L174.359 74.5386L173.404 74.3817L173.24 73.9042L173.562 73.5836L173.617 72.4718L174.414 69.8253L174.572 68.8704L175.005 68.1883L175.485 67.9223L176.172 65.3236L176.22 64.1094L177.395 61.613V61.3538L178.198 60.2897L177.718 60.1329V59.6008L178.356 58.7551L178.301 57.6432L178.727 56.7429L179.16 56.6338L179.263 54.5125L179.689 53.8304V52.7186L180.011 52.4526L180.437 50.4063L181.289 48.9807L180.918 48.1827L181.399 47.3369L181.131 46.6957L181.88 45.7476L182.195 45.161L181.77 44.9496L182.36 44.1038L182.25 43.2035L182.731 42.6714L182.944 40.9253L184.119 36.4167L184.496 36.1507L184.173 35.7823L184.86 34.8274L184.538 34.5136L185.224 31.7034L186.598 27.3585L188.198 20.5377L188.885 17.9935L188.727 17.8366L185.98 19.003L184.97 19.6851H184.489L179.895 22.4134L180.108 23.2115L180.643 25.5374L179.634 25.2782L177.814 22.1474L177.656 20.8242L178.294 19.8692L179.469 19.7669L180.06 19.3918L180.856 19.7124L181.234 19.5555L181.179 19.1257L182.511 18.8665L183.198 18.4914L185.011 18.1777L188.961 16.9022L188.844 16.4656Z" fill="#512D6D"/>
<path d="M211.735 47.9098L212.374 48.1758L212.484 48.5442L212.957 48.4419L213.177 50.2971L213.335 50.5086L216.165 49.8674L216.426 49.6082L218.081 49.2331L218.136 48.3327L219.949 48.9193L220.856 48.3873L222.669 48.8102L221.762 49.8197L219.949 50.2971L219.633 51.8864L219.468 53.5234L219.098 56.4973L217.971 66.0875L220.636 65.4531L222.188 65.8214L223.143 66.0875L223.411 66.4558L219.255 67.6222L217.6 68.0996L217.332 68.9454L216.962 71.0667L216.378 71.1758L216.213 71.0667L215.787 70.0095L215.952 69.4229L215.732 68.5771L211.199 69.7435L211.041 70.5347L210.403 70.6438L209.654 70.1664L205.437 71.9671L204.956 71.5442L204.585 70.064L205.066 69.8458L205.54 70.0095L208.637 69.0546L209.173 68.734L210.348 61.3197L210.773 52.9982L206.879 54.4783L206.192 53.8986L206.028 52.2547L206.776 52.7868L210.087 51.7227L210.622 51.5658L210.883 51.2998L210.938 49.9356L210.67 48.8784L210.993 48.8238L211.048 48.1417L211.735 47.9098ZM216 29.3639L216.859 29.2547L217.12 29.4116L217.387 29.3639L218.349 29.8891L218.404 30.3188L218.83 30.578L220.004 33.0744L219.791 33.4428L219.31 33.3882L218.885 32.8084L217.387 32.4878L215.327 32.6447L213.727 33.7565L212.126 35.5095L211.44 38.2378L211.811 39.7725L212.669 40.6797L213.205 40.6251L214.111 41.1503L215.815 40.782L217.312 39.7725L217.999 38.0809L217.463 36.9146L216.556 36.5463L215.492 37.2283L214.578 38.5925L213.94 37.9513L213.356 36.3075L214.633 35.148L216.824 34.6159L218.692 34.7183L219.915 35.6186L220.505 38.347L219.757 39.677L218.157 41.3686L215.842 42.3849L214.4 42.4395L212.003 41.9075L210.08 40.3182L208.85 37.508V36.3962L209.276 34.4386L210.718 32.2627L212.319 30.8986L216 29.3639ZM217.12 50.986L213.335 52.2002L213.012 52.4116L211.639 66.1898L211.371 67.9427L211.749 68.0451L214.359 67.1447H215.272L216.227 66.6672L217.085 58.298L217.511 56.3882L218.047 50.7678L217.12 50.986Z" fill="#512D6D"/>
<path d="M241.508 46.4229L242.95 46.5866L246.261 48.8102L246.522 49.3422L247.861 50.8224L247.593 52.9982L246.261 54.9558L245.299 55.6993L241.618 58.4276L241.295 58.5368L240.869 58.4276L240.546 58.796L236.494 60.3375L234.571 60.6035L234.516 60.9173L233.342 60.7058L232.009 61.0264L231.584 64.8938L231.426 64.9961L232.758 68.0178L234.997 69.3479L236.597 69.4502L238.094 69.2933L240.601 68.6112L243.589 66.8583L243.96 66.5991L246.577 64.4232L245.457 66.8105L243.218 69.0341L239.949 70.5893L236.961 71.3327L236 71.0122L235.038 71.2236L234.503 70.8007L234.022 70.8553L231.515 69.4911L229.276 67.2129L228.589 65.8897L227.95 63.9253L227.841 59.2666L225.917 56.9884L226.563 56.7702L228.053 57.8342L228.589 56.8793L230.512 53.0664L232.909 50.4131L235.148 48.6124L238.671 46.7571L240.224 46.4911L241.508 46.4229ZM243.431 48.5988L241.666 49.0762L239.214 50.3995L237.346 52.0979L234.729 54.9558L232.49 59.4371L232.6 59.7032L232.861 59.9146L235.478 59.2734L239.214 57.4182L243.108 54.1919L244.653 51.8592L245.086 50.5291L244.866 49.0489L243.431 48.5988Z" fill="#512D6D"/>
<path d="M284.591 0L286.404 0.266024L287.682 2.1213L289.234 5.83186L289.179 6.36389L289.818 7.68714L292.86 8.43062L295.532 9.33098L296.967 10.0744L299.529 11.5L302.627 14.3102L304.818 18.3414L305.188 19.9852L304.818 20.4081L305.346 21.9428L304.866 22.3111L305.243 23.8526L304.44 25.8648L303.588 26.1854L303.746 26.9766L302.998 28.2998L302.469 28.5658L302.146 29.4662L301.184 29.9982L300.498 31.2669L299.433 32.0104L298.101 33.6542L297.51 34.234L295.697 35.5641L300.504 37.2079L303.815 38.8995L307.07 41.2868L309.131 43.4558L309.447 44.1993L309.769 44.5199L311.528 46.6889L312.97 50.3995L312.867 51.9342L313.238 52.3093L313.183 54.2192L312.654 57.5546L311.28 61.3674L310.594 61.5312L310.546 62.2132L307.29 66.9879L306.541 67.1447L306.164 67.9428L304.941 69.4229L303.657 69.9004L300.669 72.7651L299.234 73.2972L298.801 73.6109H298.375L297.366 74.675L294.852 76.1005L294.536 78.2764L294.213 78.5902L294.055 79.5997L292.936 83.1533L290.8 88.0303L290.161 87.8666L289.09 87.0753L289.516 86.9116L290.642 85.0564L291.123 83.7331L291.864 82.0893L292.029 81.1343L292.558 79.1222L293.149 77.2669L293.094 76.4211H292.723L289.68 78.0104L287.812 78.6447L283.691 79.7565L283.005 80.0225L276.92 81.1889L271.473 81.5641L267.689 81.3458L263.197 80.5819L261.824 80.1044L261.398 80.2613L258.836 79.3609L254.619 77.1919L252.916 75.4935L251.206 73.1062L250.519 71.2509L250.361 68.9182L251.158 65.7396L251.59 64.6824L253.829 61.8722L258.417 58.3253L259.646 57.6842L262.689 56.0949L264.392 55.8835L264.983 55.2491L264.77 53.6053L264.557 50.1062L264.983 46.3479L264.715 44.438L264.873 44.2811L264.557 42.5828L265.038 39.6702L264.77 31.8262L265.086 30.0733L264.77 29.8141L264.674 21.7313L264.784 21.1447L264.516 18.9211L264.193 18.6551L264.035 17.0658L265.69 16.1655H267.558L268.568 16.5884L272.249 17.5433L273.747 18.2868L274.062 22.6317L273.692 28.1975L273.905 28.4635L273.376 31.7444L273.589 32.7539L273.266 33.0745L273.637 33.4428L273.321 35.0866L272.998 35.6118L273.108 37.1533V39.5884L273.321 40.1204L272.895 41.0208L273.108 42.7669L272.682 43.2444L273.108 44.7859L271.988 49.922L272.201 51.1429L271.769 52.2002L272.036 54.5875L272.998 54.4784L273.376 54.1646L278.183 54.799L281.439 56.1631L284.186 58.339L284.825 59.0756L285.415 61.3061L285.147 61.8313L285.251 62.8953L284.275 64.2118L283.637 64.3209L283.266 64.7983L281.981 65.1667L280.381 65.6441L278.836 65.3781L278.197 64.9552L277.819 64.0003L277.929 62.7794L278.3 62.5679L278.781 61.2992H279.687L280.168 60.7126H281.542L281.865 59.6008L280.69 57.957L277.325 56.4223L274.495 56.2109L272.311 56.2654L272.043 56.8452L271.563 57.3227L271.459 59.5463L271.137 59.8669L270.924 62.0427L270.766 62.6771L270.553 64.3755L270.388 64.5869L270.601 65.5896L269.694 67.4994L268.417 71.7897L267.51 73.0653L266.762 75.2888L265.8 76.5098L265.319 75.0774L265.429 74.5454L265.162 74.2794L265.319 73.0107L265.052 72.6423L264.894 71.7352L264.681 68.9318L264.571 65.0644L264.358 58.6459L264.626 58.0661L264.042 57.5341L263.719 57.9093H262.971L259.344 60.0783L258.918 60.7126L258.28 60.8218L255.979 62.8339L254.647 64.4778L253.472 66.5991L253.204 69.5661L253.424 71.7352L254.647 73.7814L257.105 76.3256L260.251 77.8058L263.877 78.6516L266.707 78.8153L267.723 78.9721L272.414 78.8698L272.737 79.0267L274.605 78.7061L276.899 78.3924L281.755 76.96L282.126 76.694H283.039L283.465 76.2711L285.862 75.473L289.117 73.9383L290.772 73.3586L291.521 72.6765L292.586 72.2467L294.509 70.8212L294.777 69.7026L295.044 67.0561V66.2103L295.202 62.7998L295.305 61.7972L295.044 58.2435L295.202 55.6516L294.88 50.454L294.619 48.1213L294.564 46.7571L294.509 43.7355L294.138 39.868L293.973 38.7017L293.066 38.3879L290.189 38.3333L285.704 38.9131L281.865 39.6566L280.903 39.8135L279.406 37.5899L278.609 35.8437L278.925 35.1616L281.487 35.2162L281.81 34.9979L283.87 34.7865L287.764 33.6747L292.73 30.8645L292.407 30.6053L291.871 27.5291L290.381 21.2743L290.113 18.9416L289.131 15.1014L288.815 13.5122L288.279 12.2912L288.492 11.4932L288.169 11.1249L287.689 9.48104L284.172 9.05815L283.101 9.21501L277.339 9.48104L272.909 9.85618L262.984 11.9024L253.438 15.1833L252.792 15.6608L252.311 15.5584L250.821 16.5065L245.697 19.1053L245.485 19.5282L242.737 21.704L241.563 22.8704L238.898 25.9398L237.614 27.8497L236.281 31.6148L236.068 33.661L236.549 35.4072L237.559 37.051L239.269 38.4834L241.453 38.9609L244.887 38.6948L245.045 38.4288L246.645 38.0605L249.578 36.253L251.982 33.9271L252.408 32.1195L252.305 31.3829L252.565 30.5303L251.982 29.473L251.295 29.2616L251.666 28.8932H252.098L252.524 28.6272L254.125 29.1524L256.309 30.96L257.057 31.8603L257.648 33.1836L257.057 34.5478L256.309 35.339V35.9256L254.015 38.5721H253.266L251.137 40.0045L248.465 41.0139L247.243 41.0685L245.958 41.6483L242.916 41.7029L241.103 41.4368L237.744 40.325L235.237 37.6103L234.812 35.7005L234.331 35.2776L234.063 34.2204L234.276 30.5644L235.402 26.9561L237.051 24.3096L239.99 20.9674L241.535 19.6441L245.114 17.2568L249.111 14.7672L252.902 13.1234L254.344 12.6527L255.031 12.2776L256.254 11.9638L263.623 9.52196L264.955 9.36507L265.271 9.04449L265.958 9.15363L269.392 8.25327L274.138 7.66668L278.259 7.0869L284.234 7.03234L286.906 7.18921L285.731 4.01068L284.186 1.6302L283.224 0.566145L283.547 0.25239L284.591 0ZM290.889 10.1222L290.724 10.6542L290.889 11.3363L292.38 17.059L292.222 17.5365L292.702 19.2895L292.805 20.6127L294.035 24.7052L294.406 27.8838L294.783 28.8387L296.013 27.8292L297.345 26.8265L299.268 22.7954L299.371 21.7382L299.852 21.3152L300.175 20.0943L299.907 19.5145L300.01 17.8162L299.323 15.4288L297.723 13.2052L295.8 11.616L291.535 10.0813L290.889 10.1222ZM296.542 39.0086L296.651 40.1204V41.4437L297.235 50.3108L296.967 51.0475L297.18 53.7758L296.864 54.1987L297.132 54.9422L297.077 56.4223L297.4 58.0116L297.29 59.7645L296.967 60.6103L297.18 61.6198L297.077 62.1996V63.7889L296.706 64.6892L296.809 65.4327L296.226 69.457L296.912 69.2456L297.393 68.3452L298.19 68.1883L299.845 66.2239L300.697 66.1216L301.287 65.0098L301.658 64.7983L303.313 62.8339L305.237 59.6554L306.94 55.522L307.476 53.3461L307.53 50.6177L307.743 50.1403L307.057 47.9712L307.482 47.7598L306.734 45.5839L306.308 45.2702L306.418 44.5267L304.653 42.4054L302.359 40.8707L300.813 40.1272L296.919 38.9063L296.542 39.0086Z" fill="#F8485E"/>
<path d="M319.282 60.8422L319.92 59.5667L322.805 52.6231L323.176 51.5658L323.712 51.0884L323.657 50.72L324.137 49.8674L325.202 49.4991L325.154 49.3422L325.415 49.2331L326.163 49.3968L327.125 49.9766L327.393 49.922L329.103 51.2452L328.89 52.7322L328.457 53.0528L328.141 53.6326L328.354 53.7894L327.235 56.7088L326.589 57.9229L326.541 58.4549L326.376 58.5095L326.163 58.4549L326.273 58.8233H326.163L326.06 59.4644L325.683 59.7782L325.738 60.6308L324.721 61.3129V62.2678L324.46 63.4819L324.247 63.6456L323.979 64.6483L323.293 65.1803L323.025 67.0902L322.647 67.5608L322.599 68.925L322.757 69.6684L323.08 69.9345L324.68 68.8227L326.335 67.3357L326.761 67.1788L327.984 66.067V65.6987L330.174 63.6524L330.497 62.8612L331.404 62.1791L331.83 61.2788L332.626 60.8013L332.791 60.1192L333.478 59.5326L333.636 58.6323L334.117 58.5777L334.33 57.7319L334.652 57.1521L334.542 56.9407L336.603 53.5985L336.926 52.6981L337.612 52.016L338.787 48.9944L339.213 47.7734L339.584 47.5142L339.748 47.0368L341.184 46.2387L341.404 46.3479L341.452 46.2387L342.097 46.1364L343.375 46.5047L344.549 47.3028L344.762 47.9371L343.746 49.9834L343.959 50.4608L343.533 50.8292L342.413 53.9054L340.813 56.8725L340.758 57.1385L340.332 57.6159L340.064 58.4072L339.797 58.5641L339.906 58.9938L339.748 59.0415L339.851 59.7236L339.481 60.1465V60.8013L339.103 61.1696L339.323 61.9131L338.732 62.8135L338.622 63.9798L338.732 64.089L338.945 65.8351L340.064 66.6331L341.665 66.2034L343.959 64.7233L344.014 64.9348L342.413 67.2129L341.349 67.8473L341.184 67.9018L340.442 68.5362L337.695 68.2702H337.475L337.104 67.9564H336.678L336.466 67.6358L335.985 67.5335L335.607 66.8923L334.92 66.4217L334.336 65.3576L333.856 64.6142L333.911 61.8108L333.698 61.7017L333.375 62.1791L332.949 62.4451L332.31 63.4478L331.885 63.7684L330.868 65.4122L330.016 66.0943L329.803 66.7764L328.629 67.3084L327.825 68.3657L326.28 69.8526L326.335 70.1118L325.745 70.487L325.641 70.4324L325.374 71.0667L322.97 71.9193L322.647 72.0217L321.795 71.9671L320.889 71.5442L320.463 71.1213L319.398 70.5415L318.382 67.6222L318.485 65.5009V63.8093L318.863 63.3318L319.021 61.7426L319.447 61.3674L319.282 60.8422Z" fill="#F8485E"/>
<path d="M363.732 39.7453L365.868 39.6975L366.554 39.909L366.925 39.6975L367.777 40.0113L368.1 40.2773L370.449 41.1299L372.049 42.1326L373.01 43.0329L372.955 43.2989L373.546 43.7218L374.13 45.8431L373.649 47.5893L372.502 49.3422L371.815 49.8197L369.466 51.1429L366.719 51.7227L364.212 51.3544L362.289 49.922L361.28 48.1213L363.677 49.5537L364.267 49.7106L366.609 49.1785L367.736 48.5987L369.707 46.6412L370.826 43.5104L370.455 43.2989L369.604 42.5077L368.107 41.7028L366.239 41.9143L366.184 42.1803H365.634L363.395 43.0807L361.63 44.4039L360.188 46.1023H359.707L359.391 46.7367L358.642 47.0572L358.484 47.903L356.829 49.9152L355.016 53.8372L353.787 58.1821L353.732 59.0825L353.361 59.5599L353.203 61.1014L353.251 62.2678L353.897 65.6782L354.638 67.9564L355.497 69.8117L355.442 70.0777L357.365 72.124L359.123 73.5495L361.184 74.293H362.887L364.858 74.0816L367.365 73.0243L369.02 71.9125L370.943 70.0572L372.118 68.1474L372.008 69.7367L371.046 71.9603L370.359 72.8129L368.924 74.0816L368.388 74.027L368.175 74.4499L367.488 74.8796L366.582 74.9819L366.259 75.3571L365.085 75.6708L362.578 75.9368L359.961 75.7799L357.214 74.6681L354.549 72.8129L352.2 70.0027L350.435 66.981L349.261 62.793L349.583 61.8381L349.103 61.2037L349.261 60.5216L348.945 60.4193L349.103 58.1343L349 56.0199L349.316 55.6993L349.851 52.7322L350.332 51.8864L350.064 51.6204L351.081 49.3968L352.303 47.3505L353.636 45.4475L357.001 42.3713L360.84 40.4137L363.732 39.7453Z" fill="#F8485E"/>
<path d="M394.789 13.8873L396.163 14.0442L396.376 14.2556L398.985 16.1109L398.724 17.7547L398.244 19.5554L397.44 21.1993L397.55 21.8336L396.863 22.8431L397.076 23.2114L396.327 24.1186L396.06 25.5988L395.792 25.7556L395.902 26.1308L395.689 26.2876L395.153 27.6518L394.885 27.9724L394.94 28.3953L394.617 28.8182V29.7731L394.246 30.0869L393.285 32.2627L392.378 35.6732L392.062 36.8941L391.685 37.317L391.259 38.4834L391.582 39.2814L390.833 39.8612L391.149 40.0181L390.51 40.5501L390.723 40.9184L390.194 41.5596H389.816L389.604 41.7165L390.194 42.1394L389.762 42.8215L389.02 43.3535L389.549 43.6195L389.604 44.5199L389.288 44.8336V45.3111L388.374 46.798L387.523 49.1785L387.152 49.7651L387.523 50.2426L389.288 48.3327L390.194 47.8007L390.242 47.4324L392.756 45.3111L395.792 44.2538L396.918 43.7764L399.665 43.8855L399.823 44.1993L401.101 44.4653L401.959 44.8336L401.904 45.3111L402.543 45.1542L403.985 46.4774L404.892 48.4419V50.1334L404.521 51.3544L403.147 52.7185L402.722 52.93L402.88 53.5166L402.028 53.9872L401.76 54.7853L401.334 54.7307L400.647 55.3651L398.587 56.5314L398.264 56.7974L397.735 56.9066L397.358 57.2203L394.48 58.5845L394.267 58.7414L393.196 58.4754L392.667 59.062L393.786 59.3212L394.267 59.8532L394.748 59.7986L395.222 60.8081L396.025 61.1764L396.712 62.029V62.3428L397.619 62.8748L397.728 63.7206L398.415 64.3072L398.628 64.7847L398.463 64.9961L398.731 65.8965L399.109 66.2648L399.796 68.3111L400.277 70.2209L400.75 72.3422L400.86 73.7678L401.286 73.986L401.396 74.5113L401.128 75.2547L401.815 75.7868L401.602 76.6325L402.289 78.0649L402.076 79.279H402.502V79.7088L402.715 79.7565L402.605 80.4386L402.983 81.0252L402.873 81.2912L403.25 81.7141V82.1916L403.676 82.669L404.157 82.8259L404.473 83.8354L406.156 85.3564L408.505 85.9908L409.782 85.5679L410.846 84.8858L411.533 83.9854L411.698 82.2393L410.524 79.7497L409.665 80.8615L409.239 80.7524L408.868 81.1752L408.333 81.0729L408.065 81.3389L407.536 81.0184L406.41 78.5833L406.732 77.683L407.419 77.0418L408.539 76.7826L409.658 76.994L410.572 77.5738L413.079 80.0089L412.866 80.0634L412.811 80.4863L413.237 80.9638V83.1397L412.488 85.4724L409.741 87.3822L406.114 87.5937L405.737 87.5391L404.94 87.2186L404.514 87.3822L403.141 86.5842L400.476 84.7289L398.766 82.7168L398.875 81.8164L398.34 81.605L397.804 80.3295L397.646 80.2749L396.527 76.4075L396.149 76.196L395.194 72.6969L394.981 72.3286L394.604 69.8935L393.271 64.4846L392.9 63.7411L393.003 63.2636L391.245 60.4057L389.803 59.3416L389.164 59.2393L388.896 59.0279L386.836 58.1753L387.475 57.8069L389.288 57.9638L391.348 57.4864L391.939 57.5409L395.194 55.4196L395.029 55.1059L395.716 55.2082L396.142 54.417L396.623 54.4715L396.733 53.994L397.536 53.6735L398.175 52.7185H398.601V52.0842L399.562 51.8182L399.507 51.1838L400.469 50.1744L401.43 47.9508V47.3164L401.163 46.0955L399.288 45.0451L398.491 45.2088L395.393 45.734L392.996 47.0982L390.249 49.9629L389.178 51.2316L385.977 55.9517L383.416 60.6649L383.148 61.2515L381.815 65.0166L381.231 65.4872L381.177 66.5513L380.428 67.82L380.373 68.7203L379.466 70.2073L379.576 70.5756L378.986 71.3191L377.014 69.4638L376.211 68.618L376.85 66.6536L377.069 66.4422L377.014 66.2853L378.388 62.3087H378.972L378.443 61.6266L379.185 61.5243L378.656 60.9923L379.563 61.1492L379.508 60.89L379.027 60.7808L379.295 59.5599L379.508 59.4576L379.933 58.605L379.72 57.7592L380.359 56.2245V55.8493L380.895 55.215L380.84 54.8467L381.589 52.6162L382.172 52.357L382.124 50.8701L382.921 48.2236L383.725 47.2687L384.095 44.6699L384.782 44.0901L384.569 43.6127L385.476 40.5365L386.115 40.0044L385.902 39.5816L388.196 33.3268L388.573 31.7921L389.638 29.9368L390.229 27.2903L390.703 26.2263L391.506 23.4979L391.932 23.1296L393.429 18.887V18.2049L393.697 17.9389L394.123 15.7699L393.697 15.613L389.961 17.3046L389.425 17.4683L389.054 17.3046L388.573 17.782L388.093 17.8366L387.928 18.314L387.289 18.1572L386.012 18.8938H385.551L383.841 20.3262V22.0246L384.164 22.6589L383.573 23.1364L381.815 19.8487V19.4804L381.438 18.7983L381.602 18.3754L381.389 18.0548L381.602 17.7888L382.454 17.6865L382.564 17.2568L382.99 17.366L383.786 16.9431L384.322 16.9976L384.748 16.5201L385.284 16.3565L385.764 16.6225L385.977 15.9881L387.042 16.2541L390.565 15.2992L394.404 14.2897L394.789 13.8873Z" fill="#F8485E"/>
<path d="M436.993 45.3111V46.6412L436.306 48.4419L436.203 49.4991L435.777 49.7106L435.613 50.3449L433.642 52.2547L432.955 52.8413L431.78 53.312L429.857 53.6871L429.699 53.5302L427.941 53.2097L426.925 52.7868L426.238 52.5208L424.795 50.9315L424.315 49.922L424.267 47.3301L424.583 45.8977L425.654 44.7859L427.028 44.3562L427.611 44.4107L428.092 44.5744L429.692 45.8431V46L430.331 46.4229L430.441 46.8526L429.637 47.064L428.195 46.9549L427.453 47.3301L426.169 48.6533L425.901 49.6082L425.956 49.8674L426.437 50.6655L426.705 51.3476L427.879 51.9273L429.157 52.1934L430.228 51.8796L432.577 49.9697L433.642 48.1145L433.799 47.2687L433.854 44.1379L433.003 41.8597L432.68 41.3823L431.567 40.3387L430.977 40.1818L430.764 39.7521L430.29 39.8066L428.47 39.3292L427.46 39.7043L427.247 39.5406L427.034 39.5952L426.815 39.8066L425.908 39.9158L423.848 40.973L421.98 43.2512L421.396 44.1515L420.276 48.2441L420.166 48.9262L420.276 51.2043L420.537 51.9956L420.489 52.3707L420.702 52.7936L422.076 55.7061L423.676 57.9297L427.893 62.4383L431.327 66.8855L432.179 69.2183L432.817 69.8049L433.298 71.7079L433.511 75.739L433.298 76.96L432.817 78.597L432.446 78.863L432.556 79.395L431.698 80.616V81.2639L430.736 82.2189L430.523 83.2215L429.727 83.4398L429.83 83.8081L428.923 84.7085L428.765 84.9199L428.078 85.1859L427.488 85.9294L425.427 87.3618H425.214L421.856 88.6851L419.342 89.0534L416.197 89.1625L415.771 88.9511L415.132 89.1625L412.625 88.2622L408.903 85.6975L407.728 84.2106L407.09 83.7877L405.276 81.1889L405.064 80.3431L404.631 79.7088L404.15 77.0555L404.26 75.8345L403.992 75.2002L404.418 73.7678L404.363 72.8674L404.899 71.5033V70.8689L405.325 70.446L405.434 69.8117L406.183 68.9113L406.396 68.3793L407.083 67.7995L407.296 67.2129L410.496 65.0439H410.922L411.032 64.8802L413.539 63.8775L417.536 63.7684L418.607 63.9798L420.846 65.0439L421.753 65.6237L423.463 67.9018L424.425 70.1255V70.8689L424.638 71.8784L424.315 72.0899L424.528 73.1471L423.841 74.8455L423.525 75.0024L423.683 75.1592L423.628 75.4253L422.831 75.8482L422.453 76.8577L421.231 77.8671L420.908 78.6038L419.466 78.8221L419.04 79.1904L416.478 79.1358L414.507 78.0786L413.223 76.0664L412.797 74.2112L413.758 70.8007L414.294 70.4324H414.507L414.72 70.5415L415.036 71.0122L414.397 72.2331L414.342 74.0884L416.107 76.1347L416.588 76.3461H417.172L417.653 76.2915L419.713 75.3912L420.675 73.8565L420.785 73.3244L421.313 72.6423L421.691 70.0504L421.265 68.1406L420.73 66.7764L419.184 65.5009L417.529 65.0303L415.235 65.2417L412.028 67.1447L409.789 69.4775H409.59L407.879 72.8197L407.667 74.4567L407.351 75.2547V78.8562L408.257 82.1438L408.683 82.8259L410.496 85.0018L411.348 85.4724L412.206 86.1136L413.271 86.3796L413.539 86.6934L414.39 86.591L415.407 86.9594L418.394 86.591L420.798 85.6361H421.382L421.705 85.1041H421.918L423.676 83.5694L425.867 81.0798L426.025 80.4386L426.664 79.5383L426.561 79.2722L427.089 78.6925L428.463 74.1907L428.518 70.903L427.982 68.6794L426.973 65.8147L426.066 63.7684L425.585 63.4001L425.372 62.9772L424.995 62.6566L425.05 62.336L422.488 59.3144L422.007 58.7346L419.39 55.2355L418.271 53.1142L417.309 51.4226L416.403 48.4555L416.616 48.1895L416.513 47.18V46.6548L417.048 43.6331L417.735 42.4122L418.319 41.4027L420.881 39.4997L422 38.9131L425.043 38.1696L425.414 38.1219L429.15 38.2788L430.324 38.5994L432.831 39.5474L434.809 40.8775L435.448 41.5119L436.135 42.6782L436.993 45.3111Z" fill="#F8485E"/>
</g>
<defs>
<clipPath id="clip0">
<rect width="437" height="92" fill="white"/>
</clipPath>
</defs>
</svg>
