<svg width="61" height="61" viewBox="0 0 61 61" fill="none" xmlns="http://www.w3.org/2000/svg">
<path fill-rule="evenodd" clip-rule="evenodd" d="M29.6064 50.9563C29.0344 51.5281 28.2588 51.8493 27.45 51.8493C26.6413 51.8493 25.8656 51.5281 25.2937 50.9563L6.99367 32.6563C6.42188 32.0844 6.10067 31.3087 6.10067 30.5C6.10067 29.6912 6.42188 28.9156 6.99367 28.3436L25.2937 10.0436C25.8689 9.48805 26.6393 9.18063 27.439 9.18758C28.2387 9.19453 29.0037 9.51529 29.5692 10.0808C30.1347 10.6463 30.4555 11.4113 30.4624 12.211C30.4694 13.0107 30.162 13.7811 29.6064 14.3563L16.5127 27.45L51.85 27.45C52.6589 27.45 53.4347 27.7713 54.0067 28.3433C54.5787 28.9153 54.9 29.6911 54.9 30.5C54.9 31.3089 54.5787 32.0847 54.0067 32.6567C53.4347 33.2286 52.6589 33.55 51.85 33.55L16.5127 33.55L29.6064 46.6436C30.1782 47.2156 30.4994 47.9912 30.4994 48.8C30.4994 49.6087 30.1782 50.3844 29.6064 50.9563V50.9563Z" fill="#512D6D"/>
</svg>
