<svg width="49" height="43" viewBox="0 0 49 43" fill="none" xmlns="http://www.w3.org/2000/svg">
<path fill-rule="evenodd" clip-rule="evenodd" d="M25.3936 1.04366C25.9656 0.471877 26.7412 0.150665 27.55 0.150665C28.3587 0.150665 29.1344 0.471877 29.7063 1.04366L48.0063 19.3437C48.5781 19.9156 48.8993 20.6913 48.8993 21.5C48.8993 22.3088 48.5781 23.0844 48.0063 23.6564L29.7063 41.9564C29.1311 42.5119 28.3607 42.8194 27.561 42.8124C26.7613 42.8055 25.9963 42.4847 25.4308 41.9192C24.8653 41.3537 24.5445 40.5887 24.5376 39.789C24.5306 38.9893 24.838 38.2189 25.3936 37.6437L38.4873 24.55H3.14998C2.34107 24.55 1.56529 24.2287 0.9933 23.6567C0.421314 23.0847 0.0999756 22.3089 0.0999756 21.5C0.0999756 20.6911 0.421314 19.9153 0.9933 19.3433C1.56529 18.7714 2.34107 18.45 3.14998 18.45H38.4873L25.3936 5.35636C24.8218 4.7844 24.5006 4.00876 24.5006 3.20001C24.5006 2.39126 24.8218 1.61562 25.3936 1.04366V1.04366Z" fill="#00C1D4"/>
</svg>
