<svg width="30" height="32" viewBox="0 0 30 32" fill="none" xmlns="http://www.w3.org/2000/svg">
<path d="M1.66663 7.66667H28.3333M26.6666 7.66667L25.2216 27.9033C25.1618 28.7443 24.7855 29.5314 24.1685 30.106C23.5515 30.6806 22.7397 31 21.8966 31H8.10329C7.26019 31 6.4484 30.6806 5.83143 30.106C5.21446 29.5314 4.83815 28.7443 4.77829 27.9033L3.33329 7.66667H26.6666ZM11.6666 14.3333V24.3333V14.3333ZM18.3333 14.3333V24.3333V14.3333ZM20 7.66667V2.66667C20 2.22464 19.8244 1.80072 19.5118 1.48816C19.1992 1.17559 18.7753 1 18.3333 1H11.6666C11.2246 1 10.8007 1.17559 10.4881 1.48816C10.1756 1.80072 9.99996 2.22464 9.99996 2.66667V7.66667H20Z" stroke="white" stroke-width="2" stroke-linecap="round" stroke-linejoin="round"/>
</svg>
