<svg width="94" height="94" viewBox="0 0 94 94" fill="none" xmlns="http://www.w3.org/2000/svg">
    <path d="M20 30.3333H73.3333M70 30.3333L67.11 70.8067C66.9903 72.4886 66.2376 74.0627 65.0037 75.2119C63.7698 76.3611 62.1462 77 60.46 77H32.8733C31.1871 77 29.5636 76.3611 28.3296 75.2119C27.0957 74.0627 26.3431 72.4886 26.2233 70.8067L23.3333 30.3333H70ZM40 43.6667V63.6667V43.6667ZM53.3333 43.6667V63.6667V43.6667ZM56.6667 30.3333V20.3333C56.6667 19.4493 56.3155 18.6014 55.6904 17.9763C55.0652 17.3512 54.2174 17 53.3333 17H40C39.1159 17 38.2681 17.3512 37.643 17.9763C37.0179 18.6014 36.6667 19.4493 36.6667 20.3333V30.3333H56.6667Z" stroke="#F8485E" stroke-width="4" stroke-linecap="round" stroke-linejoin="round" />
</svg>
    